<svg aria-hidden="true" style="width:0;height:0;position:absolute;overflow:hidden" xmlns="http://www.w3.org/2000/svg"><defs><symbol id="icon-v" viewBox="0 0 52 32"><path style="fill:" d="M3.372 6.375 26 29.003 48.628 6.375 45.8 3.547 26 23.347 6.2 3.547 3.372 6.375z"/></symbol><symbol id="icon-close" viewBox="0 0 32 32"><path d="m18.228 16 13.1-13.1A1.58 1.58 0 0 0 29.1.672L16 13.772 2.9.656A1.586 1.586 0 1 0 .656 2.9L13.772 16 .656 29.1a1.593 1.593 0 0 0-.552 1.139 1.572 1.572 0 0 0 1.003 1.532 1.578 1.578 0 0 0 1.776-.444l13.116-13.1 13.1 13.1a1.58 1.58 0 0 0 2.228-2.229l-13.1-13.1z"/></symbol><symbol id="icon-cocktail-logo" viewBox="0 0 37 32"><path d="M.275 0h35.611v30.925H.275V0z"/></symbol><symbol id="icon-heart" viewBox="0 0 36 32"><path d="m17.882 32-2.593-2.302C6.08 21.554 0 16.183 0 9.591 0 4.22 4.328 0 9.835 0c3.112 0 6.098 1.413 8.047 3.645C19.831 1.413 22.818 0 25.929 0c5.508 0 9.835 4.22 9.835 9.591 0 6.592-6.08 11.963-15.289 20.124l-2.593 2.284z"/><path d="m17.882 28.631-2.099-1.817C8.328 20.385 3.406 16.144 3.406 10.94c0-4.24 3.503-7.572 7.962-7.572 2.519 0 4.936 1.115 6.514 2.877 1.578-1.762 3.995-2.877 6.514-2.877 4.459 0 7.962 3.332 7.962 7.572 0 5.204-4.922 9.444-12.377 15.888l-2.099 1.803z"/></symbol><symbol id="icon-menu" viewBox="0 0 60 32"><path d="M2 0h56a2 2 0 1 1 0 4H2a2 2 0 1 1 0-4zM2 14h56a2 2 0 1 1 0 4H2a2 2 0 1 1 0-4zM2 28h56a2 2 0 1 1 0 4H2a2 2 0 1 1 0-4z"/></symbol><symbol id="icon-search" viewBox="0 0 32 32"><path fill="#fd5103" style="fill:var(--color1,#fd5103)" d="M13.333 24a10.603 10.603 0 0 0 6.529-2.251l5.861 5.861 1.885-1.885-5.861-5.861a10.602 10.602 0 0 0 2.252-6.531c0-5.881-4.785-10.667-10.667-10.667S2.665 7.451 2.665 13.333C2.665 19.214 7.45 24 13.332 24zm0-18.667c4.412 0 8 3.588 8 8s-3.588 8-8 8-8-3.588-8-8 3.588-8 8-8z"/></symbol></defs></svg>