<svg aria-hidden="true" style="width:0;height:0;position:absolute;overflow:hidden" xmlns="http://www.w3.org/2000/svg"><defs><symbol id="icon-bx_search" viewBox="0 0 31 32"><path fill="#fd5103" style="fill:var(--color1,#fd5103)" d="M12.8 23.68c2.272 0 4.478-.761 6.268-2.161l5.627 5.627 1.81-1.81-5.627-5.627a10.184 10.184 0 0 0 2.162-6.269c0-5.646-4.594-10.24-10.24-10.24S2.56 7.794 2.56 13.44 7.154 23.68 12.8 23.68zm0-17.92c4.236 0 7.68 3.444 7.68 7.68s-3.444 7.68-7.68 7.68-7.68-3.444-7.68-7.68 3.444-7.68 7.68-7.68z"/></symbol><symbol id="icon-close-menu" viewBox="0 0 32 32"><path d="m17.253 16 7.369-7.369a.886.886 0 0 0-.047-1.207.893.893 0 0 0-1.207-.047l-7.369 7.369L8.63 7.368A.892.892 0 0 0 7.368 8.63l7.378 7.369-7.378 7.369a.891.891 0 0 0-.249.999.881.881 0 0 0 .503.503.897.897 0 0 0 .712-.027.891.891 0 0 0 .288-.222L16 17.252l7.369 7.369a.886.886 0 0 0 1.207-.047.888.888 0 0 0 .047-1.207l-7.369-7.369z"/></symbol><symbol id="icon-ep_arrow-up" viewBox="0 0 32 32"><path d="m16.724 21.241 10.62-11.146a1.001 1.001 0 0 0 0-1.38l-.012-.012a.921.921 0 0 0-1.334 0l-10 10.496L6.002 8.703a.936.936 0 0 0-.667-.287.908.908 0 0 0-.667.287l-.012.012a1.001 1.001 0 0 0 0 1.38l10.62 11.146a.994.994 0 0 0 .724.31.993.993 0 0 0 .724-.31z"/></symbol><symbol id="icon-menu_burger" viewBox="0 0 56 32"><path d="M1.882.941h52.706a1.882 1.882 0 1 1 0 3.764H1.882a1.882 1.882 0 1 1 0-3.764zM1.882 14.118h52.706a1.882 1.882 0 1 1 0 3.764H1.882a1.882 1.882 0 1 1 0-3.764zM1.882 27.294h52.706a1.882 1.882 0 1 1 0 3.764H1.882a1.882 1.882 0 1 1 0-3.764z"/></symbol><symbol id="heart" viewBox="0 0 19 17"><path d="m9.5 17-1.377-1.223C3.23 11.451 0 8.597 0 5.095 0 2.242 2.299 0 5.225 0 6.878 0 8.465.75 9.5 1.936A5.749 5.749 0 0 1 13.775 0C16.701 0 19 2.242 19 5.095c0 3.502-3.23 6.356-8.123 10.691L9.5 17Z" fill="#FD5103"/><path fill="currentColor" d="m9.5 15.21-1.115-.965C4.425 10.83 1.81 8.577 1.81 5.812c0-2.252 1.86-4.022 4.23-4.022 1.337 0 2.622.592 3.46 1.528.838-.936 2.123-1.528 3.46-1.528 2.37 0 4.23 1.77 4.23 4.022 0 2.765-2.614 5.018-6.575 8.44l-1.115.959Z"/></symbol><symbol id="icon-heart-1" viewBox="0 0 22 20"><path fill="#fd5103" style="fill:var(--color1,#fd5103)" d="m11.176 20-1.621-1.439C3.799 13.471-.001 10.114-.001 5.994c0-3.357 2.705-5.995 6.147-5.995 1.945 0 3.811.883 5.029 2.278a6.764 6.764 0 0 1 5.029-2.278c3.442 0 6.147 2.638 6.147 5.995 0 4.12-3.8 7.477-9.556 12.578L11.174 20z"/><path fill="#fd5103" style="fill:var(--color1,#fd5103)" d="m11.177 17.895-1.312-1.136c-4.66-4.018-7.736-6.669-7.736-9.921 0-2.65 2.19-4.733 4.976-4.733 1.574 0 3.085.697 4.071 1.798.986-1.101 2.497-1.798 4.071-1.798 2.787 0 4.976 2.082 4.976 4.733 0 3.253-3.076 5.903-7.736 9.93l-1.312 1.127z"/></symbol><symbol id="icon-heart" viewBox="0 0 22 20"><path fill="#fd5103" style="fill:var(--color1,#fd5103)" d="m11.176 20-1.621-1.439C3.799 13.471-.001 10.114-.001 5.994c0-3.357 2.705-5.995 6.147-5.995 1.945 0 3.811.883 5.029 2.278a6.764 6.764 0 0 1 5.029-2.278c3.442 0 6.147 2.638 6.147 5.995 0 4.12-3.8 7.477-9.556 12.578L11.174 20z"/><path fill="#fcfcfc" style="fill:var(--color2,#fcfcfc)" d="m11.177 17.895-1.312-1.136c-4.66-4.018-7.736-6.669-7.736-9.921 0-2.65 2.19-4.733 4.976-4.733 1.574 0 3.085.697 4.071 1.798.986-1.101 2.497-1.798 4.071-1.798 2.787 0 4.976 2.082 4.976 4.733 0 3.253-3.076 5.903-7.736 9.93l-1.312 1.127z"/></symbol></defs></svg>