<svg aria-hidden="true" style="position: absolute; width: 0; height: 0; overflow: hidden;" version="1.1" xmlns="http://www.w3.org/2000/svg" xmlns:xlink="http://www.w3.org/1999/xlink">
<defs>
<symbol id="icon-bx_search" viewBox="0 0 31 32">
<path fill="#fd5103" style="fill: var(--color1, #fd5103)" d="M12.8 23.68c2.272-0 4.478-0.761 6.268-2.161l5.627 5.627 1.81-1.81-5.627-5.627c1.4-1.79 2.161-3.997 2.162-6.269 0-5.646-4.594-10.24-10.24-10.24s-10.24 4.594-10.24 10.24c0 5.646 4.594 10.24 10.24 10.24zM12.8 5.76c4.236 0 7.68 3.444 7.68 7.68s-3.444 7.68-7.68 7.68c-4.236 0-7.68-3.444-7.68-7.68s3.444-7.68 7.68-7.68z"></path>
</symbol>
<symbol id="icon-close-menu" viewBox="0 0 32 32">
<path d="M17.253 16l7.369-7.369c0.146-0.17 0.222-0.389 0.213-0.613s-0.101-0.436-0.26-0.594-0.37-0.251-0.594-0.26c-0.224-0.009-0.442 0.067-0.613 0.213l-7.369 7.369-7.369-7.378c-0.167-0.167-0.394-0.261-0.631-0.261s-0.464 0.094-0.631 0.261c-0.167 0.167-0.261 0.394-0.261 0.631s0.094 0.464 0.261 0.631l7.378 7.369-7.378 7.369c-0.093 0.080-0.169 0.178-0.222 0.288s-0.083 0.23-0.088 0.353 0.016 0.244 0.061 0.358c0.045 0.114 0.112 0.218 0.199 0.304s0.19 0.154 0.304 0.199 0.236 0.065 0.359 0.061c0.122-0.005 0.243-0.035 0.353-0.088s0.208-0.129 0.288-0.222l7.378-7.369 7.369 7.369c0.17 0.146 0.389 0.222 0.613 0.213s0.436-0.101 0.594-0.26 0.251-0.371 0.26-0.594c0.009-0.224-0.067-0.442-0.213-0.613l-7.369-7.369z"></path>
</symbol>
<symbol id="icon-ep_arrow-up" viewBox="0 0 32 32">
<path d="M16.724 21.241l10.62-11.146c0.177-0.186 0.276-0.433 0.276-0.69s-0.099-0.504-0.276-0.69l-0.012-0.012c-0.086-0.090-0.189-0.163-0.304-0.212s-0.238-0.075-0.363-0.075c-0.125 0-0.248 0.025-0.363 0.075s-0.218 0.121-0.304 0.212l-10 10.496-9.996-10.496c-0.086-0.090-0.189-0.162-0.304-0.212s-0.238-0.075-0.363-0.075c-0.125 0-0.248 0.025-0.363 0.075s-0.218 0.121-0.304 0.212l-0.012 0.012c-0.177 0.186-0.276 0.433-0.276 0.69s0.099 0.504 0.276 0.69l10.62 11.146c0.093 0.098 0.206 0.176 0.33 0.229s0.259 0.081 0.394 0.081c0.135 0 0.269-0.027 0.394-0.081s0.237-0.131 0.33-0.229z"></path>
</symbol>
<symbol id="icon-menu_burger" viewBox="0 0 56 32">
<path d="M1.882 0.941h52.706c1.040 0 1.882 0.843 1.882 1.882s-0.843 1.882-1.882 1.882h-52.706c-1.040 0-1.882-0.843-1.882-1.882s0.843-1.882 1.882-1.882z"></path>
<path d="M1.882 14.118h52.706c1.040 0 1.882 0.843 1.882 1.882s-0.843 1.882-1.882 1.882h-52.706c-1.040 0-1.882-0.843-1.882-1.882s0.843-1.882 1.882-1.882z"></path>
<path d="M1.882 27.294h52.706c1.040 0 1.882 0.843 1.882 1.882s-0.843 1.882-1.882 1.882h-52.706c-1.040 0-1.882-0.843-1.882-1.882s0.843-1.882 1.882-1.882z"></path>
</symbol>
<symbol id="heart" viewBox="0 0 19 17" >
  <path  d="M9.5 17L8.1225 15.7771C3.23 11.4507 0 8.59727 0 5.09537C0 2.24196 2.299 0 5.225 0C6.878 0 8.4645 0.750409 9.5 1.93624C10.5355 0.750409 12.122 0 13.775 0C16.701 0 19 2.24196 19 5.09537C19 8.59727 15.77 11.4507 10.8775 15.7864L9.5 17Z" fill="#FD5103"/>
  <path fill="currentColor"  d="M9.50005 15.2106L8.38493 14.2452C4.42433 10.8296 1.80957 8.57687 1.80957 5.81221C1.80957 3.55952 3.67067 1.78955 6.03933 1.78955C7.37748 1.78955 8.66178 2.38198 9.50005 3.31816C10.3383 2.38198 11.6226 1.78955 12.9608 1.78955C15.3294 1.78955 17.1905 3.55952 17.1905 5.81221C17.1905 8.57687 14.5758 10.8296 10.6152 14.2525L9.50005 15.2106Z" />
</symbol>
<symbol id="icon-heart-1" viewBox="0 0 22 20">
<path fill="#fd5103" style="fill: var(--color1, #fd5103)" d="M11.176 20l-1.621-1.439c-5.756-5.090-9.556-8.447-9.556-12.567 0-3.357 2.705-5.995 6.147-5.995 1.945 0 3.811 0.883 5.029 2.278 1.218-1.395 3.085-2.278 5.029-2.278 3.442 0 6.147 2.638 6.147 5.995 0 4.12-3.8 7.477-9.556 12.578l-1.621 1.428z"></path>
<path fill="#fd5103" style="fill: var(--color1, #fd5103)" d="M11.177 17.895l-1.312-1.136c-4.66-4.018-7.736-6.669-7.736-9.921 0-2.65 2.19-4.733 4.976-4.733 1.574 0 3.085 0.697 4.071 1.798 0.986-1.101 2.497-1.798 4.071-1.798 2.787 0 4.976 2.082 4.976 4.733 0 3.253-3.076 5.903-7.736 9.93l-1.312 1.127z"></path>
</symbol>
<symbol id="icon-heart" viewBox="0 0 22 20">
<path fill="#fd5103" style="fill: var(--color1, #fd5103)" d="M11.176 20l-1.621-1.439c-5.756-5.090-9.556-8.447-9.556-12.567 0-3.357 2.705-5.995 6.147-5.995 1.945 0 3.811 0.883 5.029 2.278 1.218-1.395 3.085-2.278 5.029-2.278 3.442 0 6.147 2.638 6.147 5.995 0 4.12-3.8 7.477-9.556 12.578l-1.621 1.428z"></path>
<path fill="#fcfcfc" style="fill: var(--color2, #fcfcfc)" d="M11.177 17.895l-1.312-1.136c-4.66-4.018-7.736-6.669-7.736-9.921 0-2.65 2.19-4.733 4.976-4.733 1.574 0 3.085 0.697 4.071 1.798 0.986-1.101 2.497-1.798 4.071-1.798 2.787 0 4.976 2.082 4.976 4.733 0 3.253-3.076 5.903-7.736 9.93l-1.312 1.127z"></path>
</symbol>
</defs>
</svg>
